<!DOCTYPE svg PUBLIC "-//W3C//DTD SVG 1.1//EN"
    "http://www.w3.org/Graphics/SVG/1.1/DTD/svg11.dtd" >
<svg contentScriptType="text/ecmascript" width="800px"
     xmlns:xlink="http://www.w3.org/1999/xlink" zoomAndPan="magnify"
     style="height: 600px;" contentStyleType="text/css" id="chart_svg"
     height="600px" preserveAspectRatio="xMidYMid meet"
     xmlns="http://www.w3.org/2000/svg" version="1.0">
    <defs>
        <g>
            <g>
                <clipPath id="clip-1">
                    <rect x="40.25" width="755.75" y="36" height="523"/>
                </clipPath>
            </g>
        </g>
    </defs>
    <g>
        <g>
            <rect fill="rgb(255,255,255)" x="0" width="800" y="0" height="600"/>
            <rect fill="rgb(255,255,255)" x="40.25" width="755.75" y="36"
                  height="523"/>
            <line transform="matrix(1.000,0.000,0.000,1.000,0.000,0.000)"
                  x1="69.000" x2="69.000" y1="36.000" y2="559.000"
                  style="stroke-width: 1; stroke-linecap: round; stroke-linejoin: round; "
                  stroke="rgb(230,230,230)"/>
            <line transform="matrix(1.000,0.000,0.000,1.000,0.000,0.000)"
                  x1="69.057" x2="69.057" y1="559.000" y2="561.000"
                  style="stroke-width: 0.5; stroke-linecap: round; stroke-linejoin: round; "
                  stroke="rgb(100,100,100)"/>
            <text x="69.057" fill="rgb(0,0,0)" y="574.000"
                  style="font-family: sans-serif; font-weight: normal; font-style: normal; font-size: 11px"
                  transform="matrix(1.000,0.000,0.000,1.000,0.000,0.000)"
                  text-anchor="middle">
                7.8
            </text>
            <line transform="matrix(1.000,0.000,0.000,1.000,0.000,0.000)"
                  x1="108.000" x2="108.000" y1="36.000" y2="559.000"
                  style="stroke-width: 1; stroke-linecap: round; stroke-linejoin: round; "
                  stroke="rgb(230,230,230)"/>
            <line transform="matrix(1.000,0.000,0.000,1.000,0.000,0.000)"
                  x1="108.434" x2="108.434" y1="559.000" y2="561.000"
                  style="stroke-width: 0.5; stroke-linecap: round; stroke-linejoin: round; "
                  stroke="rgb(100,100,100)"/>
            <text x="108.434" fill="rgb(0,0,0)" y="574.000"
                  style="font-family: sans-serif; font-weight: normal; font-style: normal; font-size: 11px"
                  transform="matrix(1.000,0.000,0.000,1.000,0.000,0.000)"
                  text-anchor="middle">
                8.0
            </text>
            <line transform="matrix(1.000,0.000,0.000,1.000,0.000,0.000)"
                  x1="148.000" x2="148.000" y1="36.000" y2="559.000"
                  style="stroke-width: 1; stroke-linecap: round; stroke-linejoin: round; "
                  stroke="rgb(230,230,230)"/>
            <line transform="matrix(1.000,0.000,0.000,1.000,0.000,0.000)"
                  x1="147.811" x2="147.811" y1="559.000" y2="561.000"
                  style="stroke-width: 0.5; stroke-linecap: round; stroke-linejoin: round; "
                  stroke="rgb(100,100,100)"/>
            <text x="147.811" fill="rgb(0,0,0)" y="574.000"
                  style="font-family: sans-serif; font-weight: normal; font-style: normal; font-size: 11px"
                  transform="matrix(1.000,0.000,0.000,1.000,0.000,0.000)"
                  text-anchor="middle">
                8.2
            </text>
            <line transform="matrix(1.000,0.000,0.000,1.000,0.000,0.000)"
                  x1="187.000" x2="187.000" y1="36.000" y2="559.000"
                  style="stroke-width: 1; stroke-linecap: round; stroke-linejoin: round; "
                  stroke="rgb(230,230,230)"/>
            <line transform="matrix(1.000,0.000,0.000,1.000,0.000,0.000)"
                  x1="187.188" x2="187.188" y1="559.000" y2="561.000"
                  style="stroke-width: 0.5; stroke-linecap: round; stroke-linejoin: round; "
                  stroke="rgb(100,100,100)"/>
            <text x="187.188" fill="rgb(0,0,0)" y="574.000"
                  style="font-family: sans-serif; font-weight: normal; font-style: normal; font-size: 11px"
                  transform="matrix(1.000,0.000,0.000,1.000,0.000,0.000)"
                  text-anchor="middle">
                8.4
            </text>
            <line transform="matrix(1.000,0.000,0.000,1.000,0.000,0.000)"
                  x1="227.000" x2="227.000" y1="36.000" y2="559.000"
                  style="stroke-width: 1; stroke-linecap: round; stroke-linejoin: round; "
                  stroke="rgb(230,230,230)"/>
            <line transform="matrix(1.000,0.000,0.000,1.000,0.000,0.000)"
                  x1="226.565" x2="226.565" y1="559.000" y2="561.000"
                  style="stroke-width: 0.5; stroke-linecap: round; stroke-linejoin: round; "
                  stroke="rgb(100,100,100)"/>
            <text x="226.565" fill="rgb(0,0,0)" y="574.000"
                  style="font-family: sans-serif; font-weight: normal; font-style: normal; font-size: 11px"
                  transform="matrix(1.000,0.000,0.000,1.000,0.000,0.000)"
                  text-anchor="middle">
                8.6
            </text>
            <line transform="matrix(1.000,0.000,0.000,1.000,0.000,0.000)"
                  x1="266.000" x2="266.000" y1="36.000" y2="559.000"
                  style="stroke-width: 1; stroke-linecap: round; stroke-linejoin: round; "
                  stroke="rgb(230,230,230)"/>
            <line transform="matrix(1.000,0.000,0.000,1.000,0.000,0.000)"
                  x1="265.942" x2="265.942" y1="559.000" y2="561.000"
                  style="stroke-width: 0.5; stroke-linecap: round; stroke-linejoin: round; "
                  stroke="rgb(100,100,100)"/>
            <text x="265.942" fill="rgb(0,0,0)" y="574.000"
                  style="font-family: sans-serif; font-weight: normal; font-style: normal; font-size: 11px"
                  transform="matrix(1.000,0.000,0.000,1.000,0.000,0.000)"
                  text-anchor="middle">
                8.8
            </text>
            <line transform="matrix(1.000,0.000,0.000,1.000,0.000,0.000)"
                  x1="305.000" x2="305.000" y1="36.000" y2="559.000"
                  style="stroke-width: 1; stroke-linecap: round; stroke-linejoin: round; "
                  stroke="rgb(230,230,230)"/>
            <line transform="matrix(1.000,0.000,0.000,1.000,0.000,0.000)"
                  x1="305.319" x2="305.319" y1="559.000" y2="561.000"
                  style="stroke-width: 0.5; stroke-linecap: round; stroke-linejoin: round; "
                  stroke="rgb(100,100,100)"/>
            <text x="305.319" fill="rgb(0,0,0)" y="574.000"
                  style="font-family: sans-serif; font-weight: normal; font-style: normal; font-size: 11px"
                  transform="matrix(1.000,0.000,0.000,1.000,0.000,0.000)"
                  text-anchor="middle">
                9.0
            </text>
            <line transform="matrix(1.000,0.000,0.000,1.000,0.000,0.000)"
                  x1="345.000" x2="345.000" y1="36.000" y2="559.000"
                  style="stroke-width: 1; stroke-linecap: round; stroke-linejoin: round; "
                  stroke="rgb(230,230,230)"/>
            <line transform="matrix(1.000,0.000,0.000,1.000,0.000,0.000)"
                  x1="344.696" x2="344.696" y1="559.000" y2="561.000"
                  style="stroke-width: 0.5; stroke-linecap: round; stroke-linejoin: round; "
                  stroke="rgb(100,100,100)"/>
            <text x="344.696" fill="rgb(0,0,0)" y="574.000"
                  style="font-family: sans-serif; font-weight: normal; font-style: normal; font-size: 11px"
                  transform="matrix(1.000,0.000,0.000,1.000,0.000,0.000)"
                  text-anchor="middle">
                9.2
            </text>
            <line transform="matrix(1.000,0.000,0.000,1.000,0.000,0.000)"
                  x1="384.000" x2="384.000" y1="36.000" y2="559.000"
                  style="stroke-width: 1; stroke-linecap: round; stroke-linejoin: round; "
                  stroke="rgb(230,230,230)"/>
            <line transform="matrix(1.000,0.000,0.000,1.000,0.000,0.000)"
                  x1="384.073" x2="384.073" y1="559.000" y2="561.000"
                  style="stroke-width: 0.5; stroke-linecap: round; stroke-linejoin: round; "
                  stroke="rgb(100,100,100)"/>
            <text x="384.073" fill="rgb(0,0,0)" y="574.000"
                  style="font-family: sans-serif; font-weight: normal; font-style: normal; font-size: 11px"
                  transform="matrix(1.000,0.000,0.000,1.000,0.000,0.000)"
                  text-anchor="middle">
                9.4
            </text>
            <line transform="matrix(1.000,0.000,0.000,1.000,0.000,0.000)"
                  x1="423.000" x2="423.000" y1="36.000" y2="559.000"
                  style="stroke-width: 1; stroke-linecap: round; stroke-linejoin: round; "
                  stroke="rgb(230,230,230)"/>
            <line transform="matrix(1.000,0.000,0.000,1.000,0.000,0.000)"
                  x1="423.451" x2="423.451" y1="559.000" y2="561.000"
                  style="stroke-width: 0.5; stroke-linecap: round; stroke-linejoin: round; "
                  stroke="rgb(100,100,100)"/>
            <text x="423.451" fill="rgb(0,0,0)" y="574.000"
                  style="font-family: sans-serif; font-weight: normal; font-style: normal; font-size: 11px"
                  transform="matrix(1.000,0.000,0.000,1.000,0.000,0.000)"
                  text-anchor="middle">
                9.6
            </text>
            <line transform="matrix(1.000,0.000,0.000,1.000,0.000,0.000)"
                  x1="463.000" x2="463.000" y1="36.000" y2="559.000"
                  style="stroke-width: 1; stroke-linecap: round; stroke-linejoin: round; "
                  stroke="rgb(230,230,230)"/>
            <line transform="matrix(1.000,0.000,0.000,1.000,0.000,0.000)"
                  x1="462.828" x2="462.828" y1="559.000" y2="561.000"
                  style="stroke-width: 0.5; stroke-linecap: round; stroke-linejoin: round; "
                  stroke="rgb(100,100,100)"/>
            <text x="462.828" fill="rgb(0,0,0)" y="574.000"
                  style="font-family: sans-serif; font-weight: normal; font-style: normal; font-size: 11px"
                  transform="matrix(1.000,0.000,0.000,1.000,0.000,0.000)"
                  text-anchor="middle">
                9.8
            </text>
            <line transform="matrix(1.000,0.000,0.000,1.000,0.000,0.000)"
                  x1="502.000" x2="502.000" y1="36.000" y2="559.000"
                  style="stroke-width: 1; stroke-linecap: round; stroke-linejoin: round; "
                  stroke="rgb(230,230,230)"/>
            <line transform="matrix(1.000,0.000,0.000,1.000,0.000,0.000)"
                  x1="502.205" x2="502.205" y1="559.000" y2="561.000"
                  style="stroke-width: 0.5; stroke-linecap: round; stroke-linejoin: round; "
                  stroke="rgb(100,100,100)"/>
            <text x="502.205" fill="rgb(0,0,0)" y="574.000"
                  style="font-family: sans-serif; font-weight: normal; font-style: normal; font-size: 11px"
                  transform="matrix(1.000,0.000,0.000,1.000,0.000,0.000)"
                  text-anchor="middle">
                10.0
            </text>
            <line transform="matrix(1.000,0.000,0.000,1.000,0.000,0.000)"
                  x1="542.000" x2="542.000" y1="36.000" y2="559.000"
                  style="stroke-width: 1; stroke-linecap: round; stroke-linejoin: round; "
                  stroke="rgb(230,230,230)"/>
            <line transform="matrix(1.000,0.000,0.000,1.000,0.000,0.000)"
                  x1="541.582" x2="541.582" y1="559.000" y2="561.000"
                  style="stroke-width: 0.5; stroke-linecap: round; stroke-linejoin: round; "
                  stroke="rgb(100,100,100)"/>
            <text x="541.582" fill="rgb(0,0,0)" y="574.000"
                  style="font-family: sans-serif; font-weight: normal; font-style: normal; font-size: 11px"
                  transform="matrix(1.000,0.000,0.000,1.000,0.000,0.000)"
                  text-anchor="middle">
                10.2
            </text>
            <line transform="matrix(1.000,0.000,0.000,1.000,0.000,0.000)"
                  x1="581.000" x2="581.000" y1="36.000" y2="559.000"
                  style="stroke-width: 1; stroke-linecap: round; stroke-linejoin: round; "
                  stroke="rgb(230,230,230)"/>
            <line transform="matrix(1.000,0.000,0.000,1.000,0.000,0.000)"
                  x1="580.959" x2="580.959" y1="559.000" y2="561.000"
                  style="stroke-width: 0.5; stroke-linecap: round; stroke-linejoin: round; "
                  stroke="rgb(100,100,100)"/>
            <text x="580.959" fill="rgb(0,0,0)" y="574.000"
                  style="font-family: sans-serif; font-weight: normal; font-style: normal; font-size: 11px"
                  transform="matrix(1.000,0.000,0.000,1.000,0.000,0.000)"
                  text-anchor="middle">
                10.4
            </text>
            <line transform="matrix(1.000,0.000,0.000,1.000,0.000,0.000)"
                  x1="620.000" x2="620.000" y1="36.000" y2="559.000"
                  style="stroke-width: 1; stroke-linecap: round; stroke-linejoin: round; "
                  stroke="rgb(230,230,230)"/>
            <line transform="matrix(1.000,0.000,0.000,1.000,0.000,0.000)"
                  x1="620.336" x2="620.336" y1="559.000" y2="561.000"
                  style="stroke-width: 0.5; stroke-linecap: round; stroke-linejoin: round; "
                  stroke="rgb(100,100,100)"/>
            <text x="620.336" fill="rgb(0,0,0)" y="574.000"
                  style="font-family: sans-serif; font-weight: normal; font-style: normal; font-size: 11px"
                  transform="matrix(1.000,0.000,0.000,1.000,0.000,0.000)"
                  text-anchor="middle">
                10.6
            </text>
            <line transform="matrix(1.000,0.000,0.000,1.000,0.000,0.000)"
                  x1="660.000" x2="660.000" y1="36.000" y2="559.000"
                  style="stroke-width: 1; stroke-linecap: round; stroke-linejoin: round; "
                  stroke="rgb(230,230,230)"/>
            <line transform="matrix(1.000,0.000,0.000,1.000,0.000,0.000)"
                  x1="659.713" x2="659.713" y1="559.000" y2="561.000"
                  style="stroke-width: 0.5; stroke-linecap: round; stroke-linejoin: round; "
                  stroke="rgb(100,100,100)"/>
            <text x="659.713" fill="rgb(0,0,0)" y="574.000"
                  style="font-family: sans-serif; font-weight: normal; font-style: normal; font-size: 11px"
                  transform="matrix(1.000,0.000,0.000,1.000,0.000,0.000)"
                  text-anchor="middle">
                10.8
            </text>
            <line transform="matrix(1.000,0.000,0.000,1.000,0.000,0.000)"
                  x1="699.000" x2="699.000" y1="36.000" y2="559.000"
                  style="stroke-width: 1; stroke-linecap: round; stroke-linejoin: round; "
                  stroke="rgb(230,230,230)"/>
            <line transform="matrix(1.000,0.000,0.000,1.000,0.000,0.000)"
                  x1="699.090" x2="699.090" y1="559.000" y2="561.000"
                  style="stroke-width: 0.5; stroke-linecap: round; stroke-linejoin: round; "
                  stroke="rgb(100,100,100)"/>
            <text x="699.090" fill="rgb(0,0,0)" y="574.000"
                  style="font-family: sans-serif; font-weight: normal; font-style: normal; font-size: 11px"
                  transform="matrix(1.000,0.000,0.000,1.000,0.000,0.000)"
                  text-anchor="middle">
                11.0
            </text>
            <line transform="matrix(1.000,0.000,0.000,1.000,0.000,0.000)"
                  x1="738.000" x2="738.000" y1="36.000" y2="559.000"
                  style="stroke-width: 1; stroke-linecap: round; stroke-linejoin: round; "
                  stroke="rgb(230,230,230)"/>
            <line transform="matrix(1.000,0.000,0.000,1.000,0.000,0.000)"
                  x1="738.467" x2="738.467" y1="559.000" y2="561.000"
                  style="stroke-width: 0.5; stroke-linecap: round; stroke-linejoin: round; "
                  stroke="rgb(100,100,100)"/>
            <text x="738.467" fill="rgb(0,0,0)" y="574.000"
                  style="font-family: sans-serif; font-weight: normal; font-style: normal; font-size: 11px"
                  transform="matrix(1.000,0.000,0.000,1.000,0.000,0.000)"
                  text-anchor="middle">
                11.2
            </text>
            <line transform="matrix(1.000,0.000,0.000,1.000,0.000,0.000)"
                  x1="778.000" x2="778.000" y1="36.000" y2="559.000"
                  style="stroke-width: 1; stroke-linecap: round; stroke-linejoin: round; "
                  stroke="rgb(230,230,230)"/>
            <line transform="matrix(1.000,0.000,0.000,1.000,0.000,0.000)"
                  x1="777.844" x2="777.844" y1="559.000" y2="561.000"
                  style="stroke-width: 0.5; stroke-linecap: round; stroke-linejoin: round; "
                  stroke="rgb(100,100,100)"/>
            <text x="777.844" fill="rgb(0,0,0)" y="574.000"
                  style="font-family: sans-serif; font-weight: normal; font-style: normal; font-size: 11px"
                  transform="matrix(1.000,0.000,0.000,1.000,0.000,0.000)"
                  text-anchor="middle">
                11.4
            </text>
            <line transform="matrix(1.000,0.000,0.000,1.000,0.000,0.000)"
                  x1="40.250" x2="796.000" y1="559.000" y2="559.000"
                  style="stroke-width: 0.5; stroke-linecap: round; stroke-linejoin: round; "
                  stroke="rgb(100,100,100)"/>
            <text x="418.125" fill="rgb(0,0,0)" y="590.000"
                  style="font-family: sans-serif; font-weight: bold; font-style: normal; font-size: 12px"
                  transform="matrix(1.000,0.000,0.000,1.000,0.000,0.000)"
                  text-anchor="middle">
                ln(gdppc)
            </text>
            <line transform="matrix(1.000,0.000,0.000,1.000,0.000,0.000)"
                  x1="40.250" x2="796.000" y1="551.000" y2="551.000"
                  style="stroke-width: 1; stroke-linecap: round; stroke-linejoin: round; "
                  stroke="rgb(230,230,230)"/>
            <line transform="matrix(1.000,0.000,0.000,1.000,0.000,0.000)"
                  x1="38.250" x2="40.250" y1="550.565" y2="550.565"
                  style="stroke-width: 0.5; stroke-linecap: round; stroke-linejoin: round; "
                  stroke="rgb(100,100,100)"/>
            <text x="36.250" fill="rgb(0,0,0)" y="556.065"
                  style="font-family: sans-serif; font-weight: normal; font-style: normal; font-size: 11px"
                  transform="matrix(1.000,0.000,0.000,1.000,0.000,0.000)"
                  text-anchor="end">
                22
            </text>
            <line transform="matrix(1.000,0.000,0.000,1.000,0.000,0.000)"
                  x1="40.250" x2="796.000" y1="520.000" y2="520.000"
                  style="stroke-width: 1; stroke-linecap: round; stroke-linejoin: round; "
                  stroke="rgb(230,230,230)"/>
            <line transform="matrix(1.000,0.000,0.000,1.000,0.000,0.000)"
                  x1="38.250" x2="40.250" y1="519.890" y2="519.890"
                  style="stroke-width: 0.5; stroke-linecap: round; stroke-linejoin: round; "
                  stroke="rgb(100,100,100)"/>
            <text x="36.250" fill="rgb(0,0,0)" y="525.390"
                  style="font-family: sans-serif; font-weight: normal; font-style: normal; font-size: 11px"
                  transform="matrix(1.000,0.000,0.000,1.000,0.000,0.000)"
                  text-anchor="end">
                24
            </text>
            <line transform="matrix(1.000,0.000,0.000,1.000,0.000,0.000)"
                  x1="40.250" x2="796.000" y1="489.000" y2="489.000"
                  style="stroke-width: 1; stroke-linecap: round; stroke-linejoin: round; "
                  stroke="rgb(230,230,230)"/>
            <line transform="matrix(1.000,0.000,0.000,1.000,0.000,0.000)"
                  x1="38.250" x2="40.250" y1="489.216" y2="489.216"
                  style="stroke-width: 0.5; stroke-linecap: round; stroke-linejoin: round; "
                  stroke="rgb(100,100,100)"/>
            <text x="36.250" fill="rgb(0,0,0)" y="494.716"
                  style="font-family: sans-serif; font-weight: normal; font-style: normal; font-size: 11px"
                  transform="matrix(1.000,0.000,0.000,1.000,0.000,0.000)"
                  text-anchor="end">
                26
            </text>
            <line transform="matrix(1.000,0.000,0.000,1.000,0.000,0.000)"
                  x1="40.250" x2="796.000" y1="459.000" y2="459.000"
                  style="stroke-width: 1; stroke-linecap: round; stroke-linejoin: round; "
                  stroke="rgb(230,230,230)"/>
            <line transform="matrix(1.000,0.000,0.000,1.000,0.000,0.000)"
                  x1="38.250" x2="40.250" y1="458.541" y2="458.541"
                  style="stroke-width: 0.5; stroke-linecap: round; stroke-linejoin: round; "
                  stroke="rgb(100,100,100)"/>
            <text x="36.250" fill="rgb(0,0,0)" y="464.041"
                  style="font-family: sans-serif; font-weight: normal; font-style: normal; font-size: 11px"
                  transform="matrix(1.000,0.000,0.000,1.000,0.000,0.000)"
                  text-anchor="end">
                28
            </text>
            <line transform="matrix(1.000,0.000,0.000,1.000,0.000,0.000)"
                  x1="40.250" x2="796.000" y1="428.000" y2="428.000"
                  style="stroke-width: 1; stroke-linecap: round; stroke-linejoin: round; "
                  stroke="rgb(230,230,230)"/>
            <line transform="matrix(1.000,0.000,0.000,1.000,0.000,0.000)"
                  x1="38.250" x2="40.250" y1="427.867" y2="427.867"
                  style="stroke-width: 0.5; stroke-linecap: round; stroke-linejoin: round; "
                  stroke="rgb(100,100,100)"/>
            <text x="36.250" fill="rgb(0,0,0)" y="433.367"
                  style="font-family: sans-serif; font-weight: normal; font-style: normal; font-size: 11px"
                  transform="matrix(1.000,0.000,0.000,1.000,0.000,0.000)"
                  text-anchor="end">
                30
            </text>
            <line transform="matrix(1.000,0.000,0.000,1.000,0.000,0.000)"
                  x1="40.250" x2="796.000" y1="397.000" y2="397.000"
                  style="stroke-width: 1; stroke-linecap: round; stroke-linejoin: round; "
                  stroke="rgb(230,230,230)"/>
            <line transform="matrix(1.000,0.000,0.000,1.000,0.000,0.000)"
                  x1="38.250" x2="40.250" y1="397.192" y2="397.192"
                  style="stroke-width: 0.5; stroke-linecap: round; stroke-linejoin: round; "
                  stroke="rgb(100,100,100)"/>
            <text x="36.250" fill="rgb(0,0,0)" y="402.692"
                  style="font-family: sans-serif; font-weight: normal; font-style: normal; font-size: 11px"
                  transform="matrix(1.000,0.000,0.000,1.000,0.000,0.000)"
                  text-anchor="end">
                32
            </text>
            <line transform="matrix(1.000,0.000,0.000,1.000,0.000,0.000)"
                  x1="40.250" x2="796.000" y1="367.000" y2="367.000"
                  style="stroke-width: 1; stroke-linecap: round; stroke-linejoin: round; "
                  stroke="rgb(230,230,230)"/>
            <line transform="matrix(1.000,0.000,0.000,1.000,0.000,0.000)"
                  x1="38.250" x2="40.250" y1="366.518" y2="366.518"
                  style="stroke-width: 0.5; stroke-linecap: round; stroke-linejoin: round; "
                  stroke="rgb(100,100,100)"/>
            <text x="36.250" fill="rgb(0,0,0)" y="372.018"
                  style="font-family: sans-serif; font-weight: normal; font-style: normal; font-size: 11px"
                  transform="matrix(1.000,0.000,0.000,1.000,0.000,0.000)"
                  text-anchor="end">
                34
            </text>
            <line transform="matrix(1.000,0.000,0.000,1.000,0.000,0.000)"
                  x1="40.250" x2="796.000" y1="336.000" y2="336.000"
                  style="stroke-width: 1; stroke-linecap: round; stroke-linejoin: round; "
                  stroke="rgb(230,230,230)"/>
            <line transform="matrix(1.000,0.000,0.000,1.000,0.000,0.000)"
                  x1="38.250" x2="40.250" y1="335.843" y2="335.843"
                  style="stroke-width: 0.5; stroke-linecap: round; stroke-linejoin: round; "
                  stroke="rgb(100,100,100)"/>
            <text x="36.250" fill="rgb(0,0,0)" y="341.343"
                  style="font-family: sans-serif; font-weight: normal; font-style: normal; font-size: 11px"
                  transform="matrix(1.000,0.000,0.000,1.000,0.000,0.000)"
                  text-anchor="end">
                36
            </text>
            <line transform="matrix(1.000,0.000,0.000,1.000,0.000,0.000)"
                  x1="40.250" x2="796.000" y1="305.000" y2="305.000"
                  style="stroke-width: 1; stroke-linecap: round; stroke-linejoin: round; "
                  stroke="rgb(230,230,230)"/>
            <line transform="matrix(1.000,0.000,0.000,1.000,0.000,0.000)"
                  x1="38.250" x2="40.250" y1="305.169" y2="305.169"
                  style="stroke-width: 0.5; stroke-linecap: round; stroke-linejoin: round; "
                  stroke="rgb(100,100,100)"/>
            <text x="36.250" fill="rgb(0,0,0)" y="310.669"
                  style="font-family: sans-serif; font-weight: normal; font-style: normal; font-size: 11px"
                  transform="matrix(1.000,0.000,0.000,1.000,0.000,0.000)"
                  text-anchor="end">
                38
            </text>
            <line transform="matrix(1.000,0.000,0.000,1.000,0.000,0.000)"
                  x1="40.250" x2="796.000" y1="274.000" y2="274.000"
                  style="stroke-width: 1; stroke-linecap: round; stroke-linejoin: round; "
                  stroke="rgb(230,230,230)"/>
            <line transform="matrix(1.000,0.000,0.000,1.000,0.000,0.000)"
                  x1="38.250" x2="40.250" y1="274.494" y2="274.494"
                  style="stroke-width: 0.5; stroke-linecap: round; stroke-linejoin: round; "
                  stroke="rgb(100,100,100)"/>
            <text x="36.250" fill="rgb(0,0,0)" y="279.994"
                  style="font-family: sans-serif; font-weight: normal; font-style: normal; font-size: 11px"
                  transform="matrix(1.000,0.000,0.000,1.000,0.000,0.000)"
                  text-anchor="end">
                40
            </text>
            <line transform="matrix(1.000,0.000,0.000,1.000,0.000,0.000)"
                  x1="40.250" x2="796.000" y1="244.000" y2="244.000"
                  style="stroke-width: 1; stroke-linecap: round; stroke-linejoin: round; "
                  stroke="rgb(230,230,230)"/>
            <line transform="matrix(1.000,0.000,0.000,1.000,0.000,0.000)"
                  x1="38.250" x2="40.250" y1="243.820" y2="243.820"
                  style="stroke-width: 0.5; stroke-linecap: round; stroke-linejoin: round; "
                  stroke="rgb(100,100,100)"/>
            <text x="36.250" fill="rgb(0,0,0)" y="249.320"
                  style="font-family: sans-serif; font-weight: normal; font-style: normal; font-size: 11px"
                  transform="matrix(1.000,0.000,0.000,1.000,0.000,0.000)"
                  text-anchor="end">
                42
            </text>
            <line transform="matrix(1.000,0.000,0.000,1.000,0.000,0.000)"
                  x1="40.250" x2="796.000" y1="213.000" y2="213.000"
                  style="stroke-width: 1; stroke-linecap: round; stroke-linejoin: round; "
                  stroke="rgb(230,230,230)"/>
            <line transform="matrix(1.000,0.000,0.000,1.000,0.000,0.000)"
                  x1="38.250" x2="40.250" y1="213.145" y2="213.145"
                  style="stroke-width: 0.5; stroke-linecap: round; stroke-linejoin: round; "
                  stroke="rgb(100,100,100)"/>
            <text x="36.250" fill="rgb(0,0,0)" y="218.645"
                  style="font-family: sans-serif; font-weight: normal; font-style: normal; font-size: 11px"
                  transform="matrix(1.000,0.000,0.000,1.000,0.000,0.000)"
                  text-anchor="end">
                44
            </text>
            <line transform="matrix(1.000,0.000,0.000,1.000,0.000,0.000)"
                  x1="40.250" x2="796.000" y1="182.000" y2="182.000"
                  style="stroke-width: 1; stroke-linecap: round; stroke-linejoin: round; "
                  stroke="rgb(230,230,230)"/>
            <line transform="matrix(1.000,0.000,0.000,1.000,0.000,0.000)"
                  x1="38.250" x2="40.250" y1="182.471" y2="182.471"
                  style="stroke-width: 0.5; stroke-linecap: round; stroke-linejoin: round; "
                  stroke="rgb(100,100,100)"/>
            <text x="36.250" fill="rgb(0,0,0)" y="187.971"
                  style="font-family: sans-serif; font-weight: normal; font-style: normal; font-size: 11px"
                  transform="matrix(1.000,0.000,0.000,1.000,0.000,0.000)"
                  text-anchor="end">
                46
            </text>
            <line transform="matrix(1.000,0.000,0.000,1.000,0.000,0.000)"
                  x1="40.250" x2="796.000" y1="152.000" y2="152.000"
                  style="stroke-width: 1; stroke-linecap: round; stroke-linejoin: round; "
                  stroke="rgb(230,230,230)"/>
            <line transform="matrix(1.000,0.000,0.000,1.000,0.000,0.000)"
                  x1="38.250" x2="40.250" y1="151.796" y2="151.796"
                  style="stroke-width: 0.5; stroke-linecap: round; stroke-linejoin: round; "
                  stroke="rgb(100,100,100)"/>
            <text x="36.250" fill="rgb(0,0,0)" y="157.296"
                  style="font-family: sans-serif; font-weight: normal; font-style: normal; font-size: 11px"
                  transform="matrix(1.000,0.000,0.000,1.000,0.000,0.000)"
                  text-anchor="end">
                48
            </text>
            <line transform="matrix(1.000,0.000,0.000,1.000,0.000,0.000)"
                  x1="40.250" x2="796.000" y1="121.000" y2="121.000"
                  style="stroke-width: 1; stroke-linecap: round; stroke-linejoin: round; "
                  stroke="rgb(230,230,230)"/>
            <line transform="matrix(1.000,0.000,0.000,1.000,0.000,0.000)"
                  x1="38.250" x2="40.250" y1="121.122" y2="121.122"
                  style="stroke-width: 0.5; stroke-linecap: round; stroke-linejoin: round; "
                  stroke="rgb(100,100,100)"/>
            <text x="36.250" fill="rgb(0,0,0)" y="126.622"
                  style="font-family: sans-serif; font-weight: normal; font-style: normal; font-size: 11px"
                  transform="matrix(1.000,0.000,0.000,1.000,0.000,0.000)"
                  text-anchor="end">
                50
            </text>
            <line transform="matrix(1.000,0.000,0.000,1.000,0.000,0.000)"
                  x1="40.250" x2="796.000" y1="90.000" y2="90.000"
                  style="stroke-width: 1; stroke-linecap: round; stroke-linejoin: round; "
                  stroke="rgb(230,230,230)"/>
            <line transform="matrix(1.000,0.000,0.000,1.000,0.000,0.000)"
                  x1="38.250" x2="40.250" y1="90.447" y2="90.447"
                  style="stroke-width: 0.5; stroke-linecap: round; stroke-linejoin: round; "
                  stroke="rgb(100,100,100)"/>
            <text x="36.250" fill="rgb(0,0,0)" y="95.947"
                  style="font-family: sans-serif; font-weight: normal; font-style: normal; font-size: 11px"
                  transform="matrix(1.000,0.000,0.000,1.000,0.000,0.000)"
                  text-anchor="end">
                52
            </text>
            <line transform="matrix(1.000,0.000,0.000,1.000,0.000,0.000)"
                  x1="40.250" x2="796.000" y1="60.000" y2="60.000"
                  style="stroke-width: 1; stroke-linecap: round; stroke-linejoin: round; "
                  stroke="rgb(230,230,230)"/>
            <line transform="matrix(1.000,0.000,0.000,1.000,0.000,0.000)"
                  x1="38.250" x2="40.250" y1="59.773" y2="59.773"
                  style="stroke-width: 0.5; stroke-linecap: round; stroke-linejoin: round; "
                  stroke="rgb(100,100,100)"/>
            <text x="36.250" fill="rgb(0,0,0)" y="65.273"
                  style="font-family: sans-serif; font-weight: normal; font-style: normal; font-size: 11px"
                  transform="matrix(1.000,0.000,0.000,1.000,0.000,0.000)"
                  text-anchor="end">
                54
            </text>
            <line transform="matrix(1.000,0.000,0.000,1.000,0.000,0.000)"
                  x1="40.250" x2="40.250" y1="36.000" y2="559.000"
                  style="stroke-width: 0.5; stroke-linecap: round; stroke-linejoin: round; "
                  stroke="rgb(100,100,100)"/>
            <text x="0.000" fill="rgb(0,0,0)" y="0.000"
                  style="font-family: sans-serif; font-weight: bold; font-style: normal; font-size: 12px"
                  transform="matrix(0.000,-1.000,1.000,0.000,20.000,297.500)"
                  text-anchor="middle">
                gini
            </text>
            <g class="dataArea" clip-path="url(#clip-1)">
                <rect fill="rgb(0, 0, 0)" x="40.25" width="755.75" y="36"
                      height="523" fill-opacity="0"/>
                <circle fill="rgb(64,64,64)" r="3" stroke-width="0.2"
                        cx="669.2477322181976" cy="473.8782991202346"
                        stroke="rgb(0,0,0)"/>
                <circle fill="rgb(64,64,64)" r="3" stroke-width="0.2"
                        cx="653.7351181673116" cy="489.2155425219941"
                        stroke="rgb(0,0,0)"/>
                <circle fill="rgb(64,64,64)" r="3" stroke-width="0.2"
                        cx="142.7520549533028" cy="213.14516129032256"
                        stroke="rgb(0,0,0)"/>
                <circle fill="rgb(64,64,64)" r="3" stroke-width="0.2"
                        cx="329.2737546559349" cy="59.77272727272725"
                        stroke="rgb(0,0,0)"/>
                <circle fill="rgb(64,64,64)" r="3" stroke-width="0.2"
                        cx="335.12983331250376" cy="274.49413489736065"
                        stroke="rgb(0,0,0)"/>
                <circle fill="rgb(64,64,64)" r="3" stroke-width="0.2"
                        cx="268.7514282862013" cy="90.44721407624621"
                        stroke="rgb(0,0,0)"/>
                <circle fill="rgb(64,64,64)" r="3" stroke-width="0.2"
                        cx="390.17037931462227" cy="136.45894428152485"
                        stroke="rgb(0,0,0)"/>
                <circle fill="rgb(64,64,64)" r="3" stroke-width="0.2"
                        cx="426.74722891683007" cy="427.866568914956"
                        stroke="rgb(0,0,0)"/>
                <circle fill="rgb(64,64,64)" r="3" stroke-width="0.2"
                        cx="556.9648483133548" cy="443.2038123167155"
                        stroke="rgb(0,0,0)"/>
                <circle fill="rgb(64,64,64)" r="3" stroke-width="0.2"
                        cx="514.2806162424195" cy="519.8900293255132"
                        stroke="rgb(0,0,0)"/>
                <circle fill="rgb(64,64,64)" r="3" stroke-width="0.2"
                        cx="704.6594036750876" cy="458.54105571847504"
                        stroke="rgb(0,0,0)"/>
                <circle fill="rgb(64,64,64)" r="3" stroke-width="0.2"
                        cx="304.0409633822716" cy="213.14516129032256"
                        stroke="rgb(0,0,0)"/>
                <circle fill="rgb(64,64,64)" r="3" stroke-width="0.2"
                        cx="255.6370626840624" cy="197.80791788856294"
                        stroke="rgb(0,0,0)"/>
                <circle fill="rgb(64,64,64)" r="3" stroke-width="0.2"
                        cx="168.90124632710095" cy="259.1568914956011"
                        stroke="rgb(0,0,0)"/>
                <circle fill="rgb(64,64,64)" r="3" stroke-width="0.2"
                        cx="511.16717376909696" cy="412.52932551319645"
                        stroke="rgb(0,0,0)"/>
                <circle fill="rgb(64,64,64)" r="3" stroke-width="0.2"
                        cx="663.4673951608173" cy="489.2155425219941"
                        stroke="rgb(0,0,0)"/>
                <circle fill="rgb(64,64,64)" r="3" stroke-width="0.2"
                        cx="655.3655213274981" cy="412.52932551319645"
                        stroke="rgb(0,0,0)"/>
                <circle fill="rgb(64,64,64)" r="3" stroke-width="0.2"
                        cx="480.885692514451" cy="397.1920821114369"
                        stroke="rgb(0,0,0)"/>
                <circle fill="rgb(64,64,64)" r="3" stroke-width="0.2"
                        cx="74.60227272727269" cy="151.79618768328436"
                        stroke="rgb(0,0,0)"/>
                <circle fill="rgb(64,64,64)" r="3" stroke-width="0.2"
                        cx="444.2680618630341" cy="443.2038123167155"
                        stroke="rgb(0,0,0)"/>
                <circle fill="rgb(64,64,64)" r="3" stroke-width="0.2"
                        cx="591.1693914755243" cy="381.8548387096774"
                        stroke="rgb(0,0,0)"/>
                <circle fill="rgb(64,64,64)" r="3" stroke-width="0.2"
                        cx="460.8064636858564" cy="335.8431085043988"
                        stroke="rgb(0,0,0)"/>
                <circle fill="rgb(64,64,64)" r="3" stroke-width="0.2"
                        cx="474.8249946352957" cy="320.50586510263923"
                        stroke="rgb(0,0,0)"/>
                <circle fill="rgb(64,64,64)" r="3" stroke-width="0.2"
                        cx="567.3965148744842" cy="443.2038123167155"
                        stroke="rgb(0,0,0)"/>
                <circle fill="rgb(64,64,64)" r="3" stroke-width="0.2"
                        cx="340.4613435194463" cy="151.79618768328436"
                        stroke="rgb(0,0,0)"/>
                <circle fill="rgb(64,64,64)" r="3" stroke-width="0.2"
                        cx="675.148729854272" cy="473.8782991202346"
                        stroke="rgb(0,0,0)"/>
                <circle fill="rgb(64,64,64)" r="3" stroke-width="0.2"
                        cx="761.6477272727271" cy="504.5527859237536"
                        stroke="rgb(0,0,0)"/>
                <circle fill="rgb(64,64,64)" r="3" stroke-width="0.2"
                        cx="433.5856805304642" cy="121.12170087976534"
                        stroke="rgb(0,0,0)"/>
                <circle fill="rgb(64,64,64)" r="3" stroke-width="0.2"
                        cx="238.8980911979335" cy="167.13343108504392"
                        stroke="rgb(0,0,0)"/>
                <circle fill="rgb(64,64,64)" r="3" stroke-width="0.2"
                        cx="275.317393677137" cy="213.14516129032256"
                        stroke="rgb(0,0,0)"/>
                <circle fill="rgb(64,64,64)" r="3" stroke-width="0.2"
                        cx="432.61659843532857" cy="458.54105571847504"
                        stroke="rgb(0,0,0)"/>
                <circle fill="rgb(64,64,64)" r="3" stroke-width="0.2"
                        cx="515.3814550171169" cy="397.1920821114369"
                        stroke="rgb(0,0,0)"/>
                <circle fill="rgb(64,64,64)" r="3" stroke-width="0.2"
                        cx="389.0683852345206" cy="351.1803519061583"
                        stroke="rgb(0,0,0)"/>
                <circle fill="rgb(64,64,64)" r="3" stroke-width="0.2"
                        cx="535.6453372998515" cy="535.2272727272727"
                        stroke="rgb(0,0,0)"/>
                <circle fill="rgb(64,64,64)" r="3" stroke-width="0.2"
                        cx="565.3151663519707" cy="381.8548387096774"
                        stroke="rgb(0,0,0)"/>
                <circle fill="rgb(64,64,64)" r="3" stroke-width="0.2"
                        cx="680.8958481467522" cy="473.8782991202346"
                        stroke="rgb(0,0,0)"/>
                <circle fill="rgb(64,64,64)" r="3" stroke-width="0.2"
                        cx="335.66093419523435" cy="259.1568914956011"
                        stroke="rgb(0,0,0)"/>
                <circle fill="rgb(64,64,64)" r="3" stroke-width="0.2"
                        cx="633.8794404239292" cy="366.5175953079179"
                        stroke="rgb(0,0,0)"/>
                <circle fill="rgb(64,64,64)" r="3" stroke-width="0.2"
                        cx="470.01108090016254" cy="289.83137829912016"
                        stroke="rgb(0,0,0)"/>
            </g>
            <rect fill="rgb(255,255,255)" x="0" width="329.515625" y="0"
                  height="32" fill-opacity="0.001"/>
            <text x="2"
                  style="font-family: sans-serif; font-weight: normal; font-style: normal; font-size: 24px"
                  y="24.96">
                Gini and log of GDP per capita
            </text>
        </g>
    </g>
    <g visibility="hidden" id="hiddenGroup"/>
</svg>